<svg width="132" height="34" viewBox="0 0 132 34" fill="none" xmlns="http://www.w3.org/2000/svg">
<path d="M15.7822 6.25489V0.114471H18.8664V6.25489H15.7822ZM34.2837 18.5349H28.1171V15.4651H34.2837V18.5349ZM21.6854 10.4872L17.3247 14.8294L12.964 10.4872L10.7841 12.6587L15.1448 17L17.3247 14.8294L19.5046 17L23.8653 12.6587L21.6854 10.4872ZM17.3247 19.1715L21.6854 23.5127L23.8653 21.3421L19.5046 17L17.3247 19.1715ZM10.7832 21.3413L15.1448 17L17.3247 19.1715L12.964 23.5127L10.7832 21.3413ZM15.7831 27.7451V33.8855H18.8664V27.7451H15.7831ZM6.53232 18.5349H0.365723V15.4651H6.53232V18.5349ZM28.2268 3.9745L23.8662 8.31662L26.0469 10.4872L30.4076 6.14598L28.2268 3.9745ZM26.0469 23.5127L30.4076 27.854L28.2268 30.0255L23.8662 25.6834L26.0469 23.5127ZM10.7841 25.6834L8.60333 23.5127L4.24264 27.854L6.42341 30.0255L10.7841 25.6834ZM6.42341 3.9745L10.7841 8.31662L8.60333 10.4872L4.24264 6.14598L6.42341 3.9745Z" fill="white"/>
<path d="M123.732 24.2052C122.534 24.2052 121.635 24.1177 121.036 23.9428C120.454 23.7532 120.04 23.4252 119.794 22.9587C119.565 22.4777 119.45 21.7634 119.45 20.8158C119.45 19.9703 119.573 19.307 119.82 18.8259C120.084 18.3448 120.498 18.0023 121.062 17.7982C121.644 17.5795 122.437 17.4702 123.441 17.4702H127.775V16.7485C127.775 16.2966 127.696 15.9613 127.538 15.7427C127.397 15.524 127.124 15.3709 126.718 15.2835C126.331 15.196 125.74 15.1523 124.947 15.1523C123.855 15.1523 122.357 15.2397 120.454 15.4147V13.4029C121.846 13.2571 123.476 13.1842 125.344 13.1842C126.983 13.1842 128.242 13.2863 129.123 13.4904C130.022 13.6945 130.665 14.0443 131.053 14.54C131.44 15.0356 131.634 15.7573 131.634 16.7048V23.9865H127.855V23.0243C127.555 23.4471 127.15 23.746 126.639 23.9209C126.128 24.1104 125.159 24.2052 123.732 24.2052ZM125.238 22.2153C126.013 22.2153 126.568 22.1934 126.903 22.1497C127.15 22.1205 127.317 22.0768 127.405 22.0185C127.511 21.9602 127.599 21.8654 127.67 21.7342C127.74 21.6322 127.775 21.4791 127.775 21.275V19.2195H125.132C124.533 19.2195 124.111 19.256 123.864 19.3288C123.617 19.3872 123.45 19.5184 123.362 19.7224C123.274 19.912 123.23 20.2545 123.23 20.7502C123.23 21.2313 123.274 21.5666 123.362 21.7561C123.45 21.9456 123.617 22.0695 123.864 22.1278C124.128 22.1861 124.586 22.2153 125.238 22.2153Z" fill="white"/>
<path d="M104.946 13.4029H109.043L111.844 20.7283L114.54 13.4029H118.425L113.721 23.9864H109.809L104.946 13.4029Z" fill="white"/>
<path d="M97.1284 24.2052C96.3355 24.2052 95.6836 24.1833 95.1726 24.1396C94.6617 24.0958 94.1154 24.0084 93.534 23.8772C92.8997 23.7314 92.3887 23.5273 92.0011 23.2649C91.6134 22.9879 91.2875 22.6016 91.0232 22.1059C90.7589 21.6249 90.6267 21.0417 90.6267 20.3566V17.2296C90.6267 16.5299 90.7589 15.9176 91.0232 15.3928C91.2875 14.868 91.631 14.4598 92.0539 14.1683C92.4239 13.9204 92.9085 13.7163 93.5076 13.556C94.1243 13.3811 94.7233 13.2717 95.3048 13.228C95.9743 13.1988 96.5822 13.1842 97.1284 13.1842C97.939 13.1842 98.5821 13.2061 99.0578 13.2499C99.5512 13.279 100.089 13.3665 100.67 13.5123C101.304 13.6726 101.815 13.8913 102.203 14.1683C102.608 14.4452 102.952 14.8388 103.234 15.3491C103.498 15.8739 103.63 16.5007 103.63 17.2296V20.3566C103.63 21.0126 103.498 21.5884 103.234 22.0841C102.987 22.5797 102.661 22.966 102.256 23.243C101.903 23.4908 101.419 23.6949 100.802 23.8553C100.203 24.0011 99.6128 24.0958 99.0314 24.1396C98.5028 24.1833 97.8685 24.2052 97.1284 24.2052ZM97.1284 22.2153C97.8509 22.2153 98.3971 22.1715 98.7671 22.0841C99.1371 21.982 99.3926 21.829 99.5335 21.6249C99.6921 21.4208 99.7714 21.1219 99.7714 20.7283V16.7267C99.7714 16.1436 99.5864 15.7354 99.2164 15.5021C98.8464 15.2689 98.1504 15.1523 97.1284 15.1523C96.1065 15.1523 95.4105 15.2689 95.0405 15.5021C94.6705 15.7354 94.4855 16.1436 94.4855 16.7267V20.7283C94.4855 21.1219 94.5559 21.4208 94.6969 21.6249C94.8555 21.829 95.1198 21.982 95.4898 22.0841C95.8598 22.1715 96.406 22.2153 97.1284 22.2153Z" fill="white"/>
<path d="M75.2781 13.4029H79.084V14.6931C79.3835 13.6872 80.749 13.1842 83.1806 13.1842C84.8192 13.1842 85.9645 13.4321 86.6165 13.9277C87.286 14.4088 87.6208 15.1741 87.6208 16.2237V23.9865H83.762V16.6392C83.762 16.231 83.7092 15.9249 83.6035 15.7208C83.5154 15.5167 83.3215 15.3709 83.022 15.2835C82.7401 15.196 82.2996 15.1523 81.7005 15.1523C80.9429 15.1523 80.3878 15.196 80.0354 15.2835C79.683 15.3564 79.4452 15.4948 79.3218 15.6989C79.1985 15.903 79.1368 16.2165 79.1368 16.6392V23.9865H75.2781V13.4029Z" fill="white"/>
<path d="M63.851 18.5635L59.0936 13.4029H63.5603L66.0711 16.4424L68.6084 13.4029H73.075L68.2912 18.5635L73.3393 23.9864H68.8727L66.0711 20.6627L63.296 23.9864H58.8293L63.851 18.5635Z" fill="white"/>
<path d="M44.2837 9.79484H57.3664V12.2221H48.4067V15.4802H56.4943V17.9074H48.4067V21.5592H57.6307V23.9864H44.2837V9.79484Z" fill="white"/>
</svg>
